HIERARCHY
ROOT Hips
{
	OFFSET	0.00	0.00	0.00
	CHANNELS 6 Xposition Yposition Zposition Zrotation Xrotation Yrotation
	JOINT LeftUpLeg
	{
		OFFSET	 0.126116	-0.014019	-0.065224
		CHANNELS 3 Zrotation Xrotation Yrotation
		JOINT LeftLeg
		{
			OFFSET	 0.000000	 0.000000	 0.569914
			CHANNELS 3 Zrotation Xrotation Yrotation
			JOINT LeftFoot
			{
				OFFSET	 0.000000	 0.000000	 0.544423
				CHANNELS 3 Zrotation Xrotation Yrotation
				JOINT LeftToeBase
				{
					OFFSET	 0.000000	 0.000000	 0.207117
					CHANNELS 3 Zrotation Xrotation Yrotation
					End Site
					{
						OFFSET	 0.000000	 0.000000	 0.207117
					}
				}
			}
		}
	}
	JOINT RightUpLeg
	{
		OFFSET	-0.124023	-0.008373	-0.065224
		CHANNELS 3 Zrotation Xrotation Yrotation
		JOINT RightLeg
		{
			OFFSET	 0.000000	 0.000000	 0.570047
			CHANNELS 3 Zrotation Xrotation Yrotation
			JOINT RightFoot
			{
				OFFSET	 0.000000	 0.000000	 0.544354
				CHANNELS 3 Zrotation Xrotation Yrotation
				JOINT RightToeBase
				{
					OFFSET	 0.000000	 0.000000	 0.207540
					CHANNELS 3 Zrotation Xrotation Yrotation
					End Site
					{
						OFFSET	 0.000000	 0.000000	 0.207540
					}
				}
			}
		}
	}
	JOINT Spine
	{
		OFFSET	 0.000184	-0.007763	 0.117403
		CHANNELS 3 Zrotation Xrotation Yrotation
		JOINT Spine1
		{
			OFFSET	 0.000000	 0.000000	 0.137269
			CHANNELS 3 Zrotation Xrotation Yrotation
			JOINT Spine2
			{
				OFFSET	 0.000000	 0.000000	 0.156879
				CHANNELS 3 Zrotation Xrotation Yrotation
				JOINT LeftShoulder
				{
					OFFSET	 0.080501	-0.002496	 0.160144
					CHANNELS 3 Zrotation Xrotation Yrotation
					JOINT LeftArm
					{
						OFFSET	 0.000000	 0.000000	 0.164363
						CHANNELS 3 Zrotation Xrotation Yrotation
						JOINT LeftForeArm
						{
							OFFSET	 0.000000	 0.000000	 0.364576
							CHANNELS 3 Zrotation Xrotation Yrotation
							JOINT LeftHand
							{
								OFFSET	 0.000000	 0.000000	 0.360812
								CHANNELS 3 Zrotation Xrotation Yrotation
								JOINT LeftHandIndex1
								{
									OFFSET	 0.000000	 0.000000	 0.086006
									CHANNELS 3 Zrotation Xrotation Yrotation
									JOINT LeftHandIndex2
									{
										OFFSET	 0.000000	 0.000000	 0.047236
										CHANNELS 3 Zrotation Xrotation Yrotation
										JOINT LeftHandIndex3
										{
											OFFSET	-0.004284	-0.000551	 0.038166
											CHANNELS 3 Zrotation Xrotation Yrotation
											End Site
											{
												OFFSET	-0.004284	-0.000551	 0.038166
											}
										}
									}
								}
							}
						}
					}
				}
				JOINT Neck
				{
					OFFSET	 0.000000	 0.000000	 0.176489
					CHANNELS 3 Zrotation Xrotation Yrotation
					JOINT Head
					{
						OFFSET	 0.000000	-0.001747	 0.077940
						CHANNELS 3 Zrotation Xrotation Yrotation
						End Site
						{
							OFFSET	 0.000000	-0.001747	 0.077940
						}
					}
				}
				JOINT RightShoulder
				{
					OFFSET	-0.080363	 0.000306	 0.159706
					CHANNELS 3 Zrotation Xrotation Yrotation
					JOINT RightArm
					{
						OFFSET	 0.000000	 0.000000	 0.164196
						CHANNELS 3 Zrotation Xrotation Yrotation
						JOINT RightForeArm
						{
							OFFSET	 0.000000	 0.000000	 0.365611
							CHANNELS 3 Zrotation Xrotation Yrotation
							JOINT RightHand
							{
								OFFSET	 0.000000	 0.000000	 0.360648
								CHANNELS 3 Zrotation Xrotation Yrotation
								JOINT RightHandIndex1
								{
									OFFSET	 0.000000	 0.000000	 0.069977
									CHANNELS 3 Zrotation Xrotation Yrotation
									JOINT RightHandIndex2
									{
										OFFSET	 0.000000	 0.000000	 0.052305
										CHANNELS 3 Zrotation Xrotation Yrotation
										JOINT RightHandIndex3
										{
											OFFSET	 0.009002	-0.000782	 0.042196
											CHANNELS 3 Zrotation Xrotation Yrotation
											End Site
											{
												OFFSET	 0.009002	-0.000782	 0.042196
											}
										}
									}
								}
							}
						}
					}
				}
			}
		}
	}
}
MOTION
Frames:    12
Frame Time: 0.03333334
 0.013974	 0.061855	 1.202168	 4.622891	-1.291902	-2.734461	-5.712084	-13.485410	-170.871000	 0.718195	-38.888370	 0.229450	 46.752090	 80.175930	-50.666210	-2.370252	 31.471530	-0.066683	 1.459584	-29.164190	-175.858000	 10.782420	-52.576200	 9.210717	 20.891370	 75.610080	-17.551800	 2.358478	 33.072380	 0.104904	-6.224592	 8.665147	 2.115405	-2.032581	 1.888678	-1.499721	 3.301659	-1.937305	 1.624104	-93.884400	 58.912620	 175.509800	 23.309830	 42.729690	-25.401450	-1.333301	-2.191208	-19.955780	-0.611131	-18.153970	-7.206425	-4.870441	 19.228260	-2.788429	-3.881709	 21.470510	 2.202943	-4.806969	 5.560783	 0.146077	-0.092672	-5.055113	 0.175599	 1.121937	 1.946805	 2.793173	 89.797100	 61.625460	-179.964400	-20.202830	 52.391750	 13.414780	-1.635321	-1.549994	 7.932376	-4.836857	-3.736207	 0.639207	 6.296719	 25.192910	-0.552871	 1.839439	 45.070290	-6.952017	 0.477291	 24.490650	 3.593168
 0.013607	 0.056661	 1.201779	 5.046411	-1.074712	-2.726656	-6.127623	-13.522170	-170.910600	 1.007753	-38.935540	 0.411659	 47.092300	 80.319340	-51.224470	-2.369529	 31.593080	-0.069426	 0.590104	-29.864400	-175.778800	 11.126390	-52.082450	 9.426326	 29.500410	 78.377660	-26.738980	 2.358901	 33.010300	 0.103459	-6.516613	 8.537972	 2.036981	-2.013437	 1.776681	-1.453553	 3.227392	-2.057016	 1.616039	-93.962330	 58.957160	 175.338400	 23.712160	 42.321940	-25.496240	-1.718267	-2.137067	-20.733480	-0.608265	-18.345650	-7.925841	-4.870085	 19.245010	-2.791095	-3.878285	 21.514230	 2.199464	-4.806179	 5.570033	 0.145534	-0.069503	-5.082684	 0.187576	 1.121761	 1.848934	 2.707163	 89.772560	 61.656120	 179.977300	-19.940870	 52.617950	 12.703570	-1.777060	-1.627291	 8.215402	-4.841345	-3.593130	 0.546439	 6.291586	 24.639980	-0.536415	 1.914171	 44.467950	-7.018655	 0.563965	 24.110620	 3.549216
 0.013088	 0.047862	 1.201169	 5.539624	-0.615898	-2.751406	-6.610193	-13.617630	-170.954300	 1.207631	-38.955780	 0.537531	 47.494280	 80.423120	-51.781310	-2.368701	 31.731250	-0.072563	-0.648032	-31.130110	-175.640600	 11.808250	-51.084030	 9.839311	 45.967580	 81.030950	-44.088170	 2.358987	 32.997400	 0.103161	-6.787943	 8.206159	 1.893876	-2.003932	 1.654153	-1.315760	 3.115451	-2.233212	 1.566780	-94.083760	 58.976760	 175.076800	 23.993320	 41.704540	-25.512810	-1.932166	-2.188006	-21.947930	-0.304669	-18.730520	-8.382717	-4.865814	 19.354250	-2.798241	-3.871420	 21.601820	 2.192485	-4.804636	 5.588242	 0.144469	-0.044518	-5.100903	 0.223340	 1.084921	 1.734179	 2.637488	 89.725420	 61.741440	 179.864300	-19.580330	 52.975350	 11.723040	-2.175802	-1.744320	 8.489390	-5.001555	-3.413239	 0.371522	 6.279633	 23.787440	-0.548320	 2.014760	 43.633970	-7.107985	 0.748583	 23.292420	 3.457153
 0.012509	 0.037012	 1.200471	 5.999987	-0.175370	-2.791262	-7.085487	-13.548450	-170.990500	 1.397132	-38.909300	 0.656029	 48.279090	 80.599810	-52.714210	-2.367856	 31.869600	-0.075707	-1.748365	-32.419630	-175.501100	 12.235700	-49.733920	 9.985987	 71.445180	 81.993910	-70.497340	 2.359150	 32.973800	 0.102616	-7.043458	 7.881835	 1.765515	-2.001209	 1.586387	-1.176645	 2.999201	-2.423483	 1.513281	-94.199700	 58.994390	 174.827200	 24.144810	 40.970690	-25.640020	-2.135280	-2.232047	-23.132250	-0.061652	-19.117860	-8.782386	-4.861405	 19.465440	-2.805245	-3.864629	 21.688430	 2.185579	-4.802908	 5.608567	 0.143272	-0.021325	-5.119671	 0.257759	 1.037853	 1.625245	 2.573087	 89.678420	 61.823650	 179.751300	-19.224270	 53.334140	 10.680720	-2.578762	-1.861238	 8.739885	-5.167657	-3.250133	 0.181899	 6.267683	 22.955080	-0.561319	 2.108644	 42.830970	-7.190967	 0.927439	 22.488620	 3.370059
 0.012179	 0.023340	 1.199645	 6.230932	 0.248191	-3.003950	-7.301012	-13.177660	-170.836800	 1.505629	-38.625560	 0.719739	 49.837120	 80.800970	-54.388600	-2.366491	 32.090130	-0.080730	-2.013201	-33.741820	-175.055000	 12.532690	-47.899160	 9.940979	 81.538170	 81.112110	-81.560290	 2.360482	 32.775740	 0.098026	-7.133018	 7.482324	 1.809860	-1.987659	 1.745689	-1.013332	 2.895847	-2.663286	 1.432381	-94.299210	 58.988880	 174.615800	 24.064250	 40.078870	-25.955800	-2.607655	-2.141878	-24.277790	-0.042651	-19.708110	-8.483396	-4.852436	 19.669050	-2.813488	-3.855107	 21.809340	 2.175907	-4.797490	 5.672398	 0.139536	-0.011740	-5.157539	 0.291539	 0.958154	 1.522496	 2.562120	 89.606250	 61.904860	 179.576900	-18.806650	 53.678850	 9.589855	-3.246730	-2.017931	 8.954134	-5.558620	-3.049436	-0.332492	 6.250528	 21.954420	-0.596421	 2.198330	 42.040730	-7.269855	 1.155014	 21.450030	 3.262284
 0.011737	 0.007469	 1.198660	 6.440036	 0.638919	-3.212534	-7.527961	-12.609970	-170.692500	 1.604774	-38.253540	 0.775275	 51.711390	 81.031850	-56.375710	-2.364852	 32.348010	-0.086631	-2.107408	-34.935040	-174.584900	 12.546510	-45.522800	 9.577287	 88.158200	 79.876010	-89.016690	 2.361038	 32.690810	 0.096059	-7.223697	 7.095958	 1.857219	-1.981220	 1.973142	-0.854832	 2.789891	-2.925215	 1.351592	-94.391360	 58.982750	 174.420400	 23.812980	 39.077970	-26.449420	-3.037660	-2.029674	-25.186640	-0.056320	-20.260200	-8.187453	-4.843350	 19.870810	-2.820805	-3.845361	 21.932720	 2.166007	-4.791325	 5.744943	 0.135271	-0.001637	-5.196248	 0.322308	 0.873762	 1.420328	 2.548035	 89.537360	 61.980240	 179.409400	-18.361720	 54.006170	 8.493054	-3.924299	-2.134606	 8.971497	-5.935560	-2.882207	-0.869243	 6.232657	 20.950140	-0.632415	 2.292172	 41.188640	-7.351987	 1.378379	 20.413650	 3.159904
 0.011196	-0.011059	 1.197457	 6.507629	 0.841295	-3.404543	-7.684141	-11.610310	-170.541300	 1.660639	-37.734260	 0.800533	 53.047830	 81.173520	-57.791740	-2.361110	 32.921030	-0.099831	-1.392396	-35.698730	-173.945700	 11.970800	-42.536890	 8.682782	 103.139600	 77.812460	-104.386900	 2.355924	 33.439960	 0.113485	-7.304947	 6.762849	 1.939642	-1.966204	 2.501953	-0.714396	 2.715986	-3.274712	 1.279400	-94.441060	 58.970070	 174.316500	 23.149530	 38.091420	-27.098630	-3.380450	-1.918634	-25.788110	-0.223454	-20.555930	-7.898615	-4.832386	 20.086750	-2.821970	-3.832752	 22.091790	 2.153203	-4.778740	 5.892814	 0.126561	 0.013698	-5.246995	 0.334992	 0.808234	 1.299479	 2.515479	 89.480840	 62.021600	 179.271900	-17.748620	 54.286020	 7.313849	-4.698517	-2.217593	 8.790122	-6.294559	-2.858532	-1.645634	 6.210303	 19.779450	-0.679811	 2.443689	 39.756280	-7.483627	 1.624477	 19.252590	 3.051116
 0.010482	-0.031770	 1.195948	 6.592023	 1.014880	-3.588428	-7.889303	-10.412330	-170.404300	 1.729027	-37.099690	 0.830294	 54.172720	 81.297440	-59.002700	-2.356176	 33.634170	-0.116447	-0.668628	-36.179290	-173.271800	 11.381410	-38.819150	 7.679347	 109.488600	 75.670440	-110.996600	 2.349989	 34.257090	 0.132746	-7.418131	 6.483351	 2.016905	-1.957083	 3.008943	-0.576491	 2.633212	-3.641278	 1.205164	-94.488550	 58.953910	 174.217900	 22.338330	 37.052430	-27.938470	-3.654021	-1.804336	-26.020150	-0.409643	-20.943060	-7.692788	-4.825065	 20.288640	-2.839868	-3.819353	 22.260070	 2.139594	-4.764494	 6.059699	 0.116693	 0.033578	-5.298963	 0.346540	 0.739822	 1.184260	 2.460869	 89.426730	 62.048880	 179.140200	-17.085980	 54.521100	 6.159919	-5.486695	-2.210807	 8.285397	-6.615585	-2.906360	-2.425758	 6.188317	 18.580140	-0.717591	 2.592974	 38.272640	-7.612087	 1.872494	 18.062440	 2.945861
 0.009493	-0.054327	 1.194048	 6.748646	 1.039475	-3.722059	-8.205998	-8.925153	-170.313200	 1.851733	-36.376710	 0.889176	 53.180640	 81.231290	-58.111130	-2.346123	 34.973200	-0.148240	-0.400778	-36.236510	-172.768500	 11.233210	-34.475760	 6.855636	 102.239100	 75.078880	-104.263800	 2.341433	 35.348060	 0.158936	-7.667461	 6.476715	 2.070526	-1.947004	 3.322908	-0.448196	 2.553461	-4.041121	 1.132111	-94.522320	 58.921990	 174.151300	 21.260560	 36.181460	-28.762890	-3.661083	-1.790452	-25.889310	-0.653382	-21.689090	-7.906233	-4.835650	 20.410460	-2.936716	-3.803216	 22.461740	 2.123200	-4.743323	 6.307154	 0.101968	 0.073822	-5.353513	 0.351724	 0.699026	 1.097156	 2.307994	 89.386750	 62.006870	 179.045100	-16.314620	 54.672550	 4.842132	-6.207989	-2.135296	 7.622068	-6.758738	-3.256764	-3.171842	 6.173510	 17.319860	-0.706977	 2.749176	 36.638670	-7.745056	 2.129187	 16.810080	 2.841683
 0.008211	-0.076295	 1.191753	 6.892983	 1.048105	-3.782341	-8.543473	-7.472497	-170.303300	 2.010231	-35.715580	 0.967769	 50.866280	 81.028020	-55.906130	-2.332363	 36.609580	-0.188204	-0.196316	-36.104650	-172.418700	 11.003630	-30.267480	 5.991043	 92.827210	 74.801430	-95.116710	 2.335448	 36.060790	 0.176350	-7.922357	 6.457902	 2.077344	-1.925793	 3.646485	-0.346325	 2.463971	-4.413398	 1.060442	-94.542820	 58.940600	 174.104600	 20.278450	 35.478550	-29.626150	-3.664093	-1.763236	-25.564910	-0.949227	-22.468590	-8.169703	-4.847703	 20.510800	-3.036604	-3.788089	 22.649880	 2.107838	-4.721455	 6.561871	 0.086712	 0.112856	-5.404482	 0.345042	 0.660826	 1.024696	 2.170811	 89.358110	 61.934520	 178.978500	-15.589140	 54.736150	 3.628765	-6.882467	-2.042613	 6.979419	-6.902036	-3.647527	-3.859785	 6.165756	 16.108990	-0.664556	 2.877683	 35.228190	-7.853238	 2.371554	 15.608920	 2.747890
 0.006260	-0.097736	 1.188762	 7.017684	 1.017889	-3.651397	-8.937290	-6.091442	-170.497200	 2.284574	-35.309860	 1.116890	 45.531700	 80.399510	-50.725150	-2.307125	 39.180500	-0.253875	 0.026358	-36.171330	-172.329900	 10.524560	-27.041050	 5.182510	 75.862130	 74.805770	-78.034740	 2.337385	 35.834940	 0.170802	-8.218654	 6.406225	 1.960288	-1.870773	 4.069491	-0.299642	 2.361934	-4.768322	 0.991168	-94.529970	 59.094780	 174.106400	 19.410270	 35.099180	-30.405840	-3.682960	-1.738364	-25.364170	-1.398799	-23.374070	-8.586135	-4.865140	 20.563160	-3.153410	-3.774416	 22.819100	 2.093958	-4.695874	 6.858549	 0.068806	 0.152008	-5.450563	 0.306060	 0.644731	 0.980857	 2.063478	 89.356830	 61.775420	 178.981600	-14.962130	 54.711010	 2.191786	-7.433419	-2.155652	 7.108702	-7.079795	-4.169081	-4.453689	 6.176981	 14.920780	-0.533520	 2.960644	 34.284390	-7.922460	 2.604722	 14.436760	 2.661958
 0.003688	-0.121157	 1.184560	 7.150092	 0.925767	-3.394685	-9.266914	-4.527516	-170.845000	 2.357897	-35.045790	 1.151748	 39.529160	 79.487490	-44.664420	-2.266376	 42.556350	-0.346421	 0.464781	-36.833900	-172.264600	 9.536249	-24.866980	 4.367541	 57.917880	 73.899270	-59.329930	 2.339107	 35.630150	 0.165799	-8.531984	 6.375959	 1.708504	-1.804677	 4.605246	-0.199368	 2.237597	-5.135602	 0.875296	-94.507560	 59.233590	 174.131000	 18.549980	 34.754230	-31.067250	-3.755985	-1.722098	-25.604060	-1.830101	-24.156240	-8.901316	-4.880235	 20.622150	-3.259485	-3.762855	 22.961560	 2.082221	-4.668042	 7.179914	 0.049245	 0.194893	-5.480491	 0.272004	 0.624274	 0.963831	 2.022626	 89.355570	 61.618160	 178.984300	-14.350990	 54.666250	 0.574037	-7.954876	-2.396926	 7.645029	-7.326787	-4.736162	-4.982165	 6.202040	 13.687590	-0.347936	 3.039256	 33.365100	-7.987569	 2.834514	 13.266320	 2.581493
